<?xml version="1.0" encoding="iso-8859-1"?>
<!-- Generator: Adobe Illustrator 15.0.0, SVG Export Plug-In . SVG Version: 6.00 Build 0)  -->
<!DOCTYPE svg PUBLIC "-//W3C//DTD SVG 1.1//EN" "http://www.w3.org/Graphics/SVG/1.1/DTD/svg11.dtd">
<svg version="1.1" id="gq" xmlns="http://www.w3.org/2000/svg" xmlns:xlink="http://www.w3.org/1999/xlink" x="0px" y="0px"
	 width="379.84px" height="561.26px" viewBox="0 0 379.84 561.26" style="enable-background:new 0 0 379.84 561.26;"
	 xml:space="preserve">
<path style="fill:#757575;" d="M97.727,444.021c-57.584-13.289-85.823-42.636-85.823-89.146V96.853
	c0-28.239,11.627-92.467,120.706-92.467c34.883,0,116.83,0,116.83,92.467h-30.453c0-52.047-30.454-62.014-86.377-62.014
	c-59.799,0-89.699,21.041-89.699,62.014v258.022c0,22.148,7.198,46.51,62.014,59.246c34.883,7.752,72.534,2.215,93.574-14.951
	c13.289-10.52,20.487-25.469,20.487-44.295c0-7.197,0-14.396,0-21.594c0.553-24.363,1.107-51.494-4.43-63.676
	c-17.719-39.865-55.37-43.188-107.417-43.188v-31.007c45.957,0,108.524,0,135.655,61.46c7.752,18.271,7.752,47.064,7.198,76.963
	c-0.554,7.199-0.554,14.396-0.554,21.041c0,28.238-11.074,52.048-32.115,68.659c-19.932,16.057-49.832,24.362-81.393,24.362
	C123.197,447.896,110.461,446.789,97.727,444.021z"/>
<g>
	<path style="fill:#757575;" d="M164.808,461.814v-16.188c-1.769,0.289-14.934,2.354-30.916,2.121v-0.077l-0.091,0.108v14.035
		c0,53.154,49.279,93.574,115.169,93.574c16.61,0,34.329,0,50.939,0c0,0,32.668,0,59.246,0v-31.008c0,0-59.8,0-110.186,0
		C206.889,524.381,164.808,502.787,164.808,461.814z"/>
	<path style="fill:#757575;" d="M350.296,149.529c-22.701-23.255-61.46-37.651-101.326-37.651
		c-65.89,0-115.169,40.42-115.169,93.575v212.092l0.028,0.02v-0.128c0,0,14.613,0.861,30.979-2.74V205.452
		c0-40.974,42.081-62.568,84.162-62.568c31.561,0,62.567,11.074,79.731,28.239c9.967,9.966,14.95,21.594,14.95,34.329v256.362
		h31.007V205.452C374.658,184.412,366.353,165.032,350.296,149.529z"/>
</g>
</svg>
